<svg width="17" height="17" viewBox="0 0 17 17" fill="none" xmlns="http://www.w3.org/2000/svg">
<path d="M6.00813 17.0003C6.71053 17.0003 7.27994 16.4183 7.27994 15.7003C7.27994 14.9824 6.71053 14.4004 6.00813 14.4004C5.30573 14.4004 4.73633 14.9824 4.73633 15.7003C4.73633 16.4183 5.30573 17.0003 6.00813 17.0003Z" fill="#5661CB"/>
<path d="M13.7352 17.0003C14.4376 17.0003 15.007 16.4183 15.007 15.7003C15.007 14.9824 14.4376 14.4004 13.7352 14.4004C13.0328 14.4004 12.4634 14.9824 12.4634 15.7003C12.4634 16.4183 13.0328 17.0003 13.7352 17.0003Z" fill="#5661CB"/>
<path d="M17.0001 2.62941C16.9509 2.52277 16.9256 2.09349 16.9245 1.98584C16.9256 1.8782 16.9509 1.7707 17.0001 1.66406H5.03711L5.66674 2.62941H11.3334H17.0001Z" fill="#5661CB"/>
<path d="M15.4308 6.31156H15.1934L14.4869 9.4892H6.00818L3.425 1.12911C3.39706 1.0404 3.34854 0.959913 3.28358 0.894521C3.21862 0.829128 3.13914 0.780768 3.05194 0.753566L0.734427 0.0255964C0.663167 0.00321422 0.588292 -0.00460245 0.514076 0.00259258C0.439861 0.00978762 0.367758 0.0318535 0.301886 0.0675304C0.168851 0.139583 0.0692673 0.262702 0.0250431 0.409803C-0.0191812 0.556903 -0.00442357 0.715936 0.0660693 0.851915C0.136562 0.987894 0.257016 1.08968 0.400932 1.13488L2.43017 1.77041L5.02465 10.1478L4.09764 10.922L4.02416 10.9971C3.79486 11.2672 3.66489 11.6106 3.65664 11.9681C3.64838 12.3256 3.76236 12.6749 3.97894 12.9557C4.133 13.1472 4.32878 13.2992 4.5506 13.3995C4.77242 13.4999 5.01413 13.5457 5.2564 13.5335H14.6904C14.8403 13.5335 14.984 13.4726 15.09 13.3643C15.1961 13.2559 15.2556 13.109 15.2556 12.9557C15.2556 12.8025 15.1961 12.6555 15.09 12.5472C14.984 12.4388 14.8403 12.378 14.6904 12.378H5.16596C5.10087 12.3757 5.03745 12.3563 4.98183 12.3217C4.92622 12.287 4.88028 12.2383 4.84846 12.1802C4.81664 12.1222 4.80001 12.0567 4.80017 11.9901C4.80034 11.9235 4.8173 11.8581 4.84942 11.8002L6.21166 10.6447H14.9391C15.0697 10.648 15.1975 10.6049 15.3005 10.5227C15.4036 10.4405 15.4756 10.3244 15.5043 10.1941L16.3918 6.20178C16.0766 6.27566 15.7542 6.31249 15.4308 6.31156Z" fill="#5661CB"/>
</svg>
