<svg width="12" height="14" viewBox="0 0 12 14" fill="none" xmlns="http://www.w3.org/2000/svg">
<path d="M2.00957 13.3248C2.02557 13.7024 2.33597 14 2.71357 14H9.29117C9.66877 14 9.98077 13.7024 9.99517 13.3248L10.4656 3.408H1.53917L2.00957 13.3248ZM7.48957 5.872C7.48957 5.7136 7.61757 5.5856 7.77597 5.5856H8.23357C8.39197 5.5856 8.51997 5.7152 8.51997 5.872V11.5376C8.51997 11.696 8.39037 11.824 8.23357 11.824H7.77597C7.61757 11.824 7.48957 11.696 7.48957 11.5376V5.872ZM5.48797 5.872C5.48797 5.7136 5.61597 5.5856 5.77437 5.5856H6.23197C6.39037 5.5856 6.51837 5.7152 6.51837 5.872V11.5376C6.51837 11.696 6.39037 11.824 6.23197 11.824H5.77437C5.61597 11.824 5.48797 11.696 5.48797 11.5376V5.872ZM3.48477 5.872C3.48477 5.7136 3.61277 5.5856 3.76957 5.5856H4.22717C4.38557 5.5856 4.51357 5.7152 4.51357 5.872V11.5376C4.51357 11.696 4.38397 11.824 4.22717 11.824H3.76957C3.61117 11.824 3.48477 11.696 3.48477 11.5376V5.872ZM10.7776 0.7216H7.74397V0.1472C7.74397 0.0656 7.67837 0 7.59677 0H4.40957C4.32797 0 4.26237 0.0656 4.26237 0.1472V0.7216H1.22717C0.983968 0.7216 0.785568 0.9184 0.785568 1.1632V2.552H11.2192V1.1632C11.2192 0.92 11.0224 0.7216 10.7776 0.7216Z" fill="#FF6760"/>
</svg>
