<svg width="19" height="13" viewBox="0 0 19 13" fill="none" xmlns="http://www.w3.org/2000/svg">
<path d="M18.788 5.76856C17.7983 4.14989 16.4676 2.84929 14.796 1.86681C13.1243 0.884291 11.359 0.392975 9.5 0.392975C7.64098 0.392975 5.87566 0.884105 4.20396 1.86681C2.53223 2.84929 1.20155 4.14989 0.211975 5.76856C0.0706708 6.01593 0 6.2598 0 6.50019C0 6.74057 0.0706708 6.98445 0.211975 7.23174C1.20155 8.85048 2.53223 10.1512 4.20396 11.1334C5.87566 12.1161 7.64098 12.607 9.5 12.607C11.3591 12.607 13.1243 12.1177 14.796 11.1388C16.4676 10.1598 17.7985 8.85742 18.788 7.23174C18.9294 6.98445 19 6.74068 19 6.50019C19 6.2598 18.9294 6.01593 18.788 5.76856ZM7.22557 2.86868C7.85816 2.2361 8.61623 1.91969 9.49989 1.91969C9.64119 1.91969 9.76144 1.96931 9.86045 2.0682C9.9593 2.16713 10.009 2.28735 10.009 2.42869C10.009 2.57014 9.9593 2.69028 9.86067 2.78906C9.76181 2.8881 9.64149 2.93757 9.50015 2.93757C8.8923 2.93757 8.37261 3.15326 7.94149 3.58434C7.51023 4.01568 7.29472 4.53514 7.29472 5.14299C7.29472 5.28452 7.24511 5.40458 7.14621 5.50359C7.04717 5.60267 6.92707 5.6521 6.78573 5.6521C6.64428 5.6521 6.52414 5.60256 6.42514 5.50359C6.32609 5.40458 6.27663 5.28437 6.27663 5.14299C6.27663 4.25952 6.59303 3.5013 7.22557 2.86868ZM14.1069 9.96212C12.6897 10.8207 11.1541 11.2503 9.5 11.2503C7.84598 11.2503 6.31038 10.821 4.89318 9.96212C3.47598 9.10327 2.2973 7.94933 1.35723 6.50019C2.43162 4.83198 3.77816 3.5843 5.39683 2.75746C4.96567 3.49246 4.75002 4.28774 4.75002 5.14296C4.75002 6.45076 5.21486 7.56905 6.14427 8.49869C7.07369 9.42832 8.19239 9.89294 9.5 9.89294C10.8077 9.89294 11.9261 9.42806 12.8557 8.49869C13.7854 7.56931 14.25 6.45076 14.25 5.14296C14.25 4.28774 14.0343 3.49235 13.6031 2.75746C15.2217 3.5843 16.5683 4.83209 17.6427 6.50019C16.7028 7.94933 15.5242 9.10327 14.1069 9.96212Z" fill="#2F80ED"/>
</svg>
