<svg width="22" height="28" viewBox="0 0 22 28" fill="none" xmlns="http://www.w3.org/2000/svg">
<path d="M21.447 26.1468C21.3404 25.1255 21.3137 24.0961 21.2124 23.0721C21.0604 21.5388 20.8417 20.0135 20.3884 18.5335C20.143 17.7415 19.7697 17.0535 19.0257 16.6161C18.3137 16.1975 17.5377 15.9495 16.759 15.7068C16.487 15.6215 16.535 15.8135 16.551 15.9521C16.623 16.6215 16.5617 17.2828 16.423 17.9361C16.3777 18.1468 16.4497 18.2428 16.631 18.3468C17.399 18.7761 17.8364 19.4321 17.8844 20.3201C17.9324 21.2348 17.7457 22.1335 17.6897 23.0401C17.6524 23.6561 17.5857 24.2748 17.327 24.8481C17.015 25.5415 16.4764 25.8161 15.7404 25.6748C15.4604 25.6215 15.2764 25.4935 15.3217 25.1841C15.367 24.8801 15.5777 24.7735 15.8577 24.8295C16.2097 24.8988 16.415 24.7335 16.559 24.4455C16.6577 24.2455 16.711 24.0268 16.7324 23.8055C16.8364 22.7841 16.9484 21.7628 17.031 20.7388C17.1057 19.8135 16.6097 19.1121 15.7884 18.9255C14.9404 18.7335 14.2097 19.1175 13.8604 19.9815C13.5804 20.6721 13.351 21.3841 13.0844 22.0828C12.9324 22.4775 12.8017 22.8748 12.7217 23.2881C12.6177 23.8241 12.7244 24.0215 13.2204 24.2455C13.4577 24.3521 13.5724 24.5201 13.4897 24.7735C13.407 25.0295 13.2204 25.1015 12.9644 25.0535C12.2337 24.9148 11.8097 24.3948 11.823 23.6455C11.8284 23.3388 11.8737 23.0428 11.959 22.7495C12.2737 21.6615 12.687 20.6081 13.1084 19.5575C13.487 18.6135 14.2417 18.0935 15.2684 18.0215C15.4684 18.0055 15.5537 17.9495 15.591 17.7548C15.7164 17.1068 15.735 16.4588 15.6764 15.8028C15.6497 15.4935 15.5297 15.3255 15.207 15.2748C14.9457 15.2348 14.6844 15.1468 14.439 15.0455C14.1937 14.9468 14.087 14.9761 14.0017 15.2535C13.7004 16.2615 13.279 17.2241 12.791 18.1575C12.5564 18.6081 12.2844 19.0401 11.983 19.5628C11.863 18.9015 11.7724 18.3388 11.655 17.7788C11.6017 17.5281 11.607 17.3015 11.7164 17.0641C11.7777 16.9281 11.9404 16.7681 11.7777 16.6215C11.519 16.3868 11.2364 16.1815 10.9617 15.9655C10.9537 15.9575 10.9164 15.9761 10.9004 15.9895C10.6337 16.2188 10.3297 16.4161 10.1217 16.6881C9.99638 16.8508 10.239 17.0641 10.2924 17.2615C10.303 17.3068 10.327 17.3548 10.3217 17.3975C10.2097 18.0855 10.0924 18.7708 9.96705 19.5228C9.87905 19.4188 9.83905 19.3788 9.81238 19.3335C9.10838 18.1975 8.53505 17.0028 8.10038 15.7388C8.01238 15.4801 8.02038 15.0801 7.79905 14.9975C7.59105 14.9201 7.27905 15.1255 7.01238 15.2001C6.87371 15.2401 6.75105 15.2775 6.69771 15.4401C6.59638 15.7548 6.45238 16.0535 6.37771 16.3681C5.88705 18.4161 6.00971 20.4428 6.64171 22.4455C6.73771 22.7495 6.85238 22.9148 7.19905 22.9815C7.86838 23.1148 8.22838 23.8481 7.99905 24.4828C7.75905 25.1521 7.03638 25.4668 6.40705 25.1788C5.77238 24.8908 5.50038 24.1095 5.86838 23.5281C6.00171 23.3175 5.98571 23.1548 5.91371 22.9468C5.23638 21.0028 5.05505 19.0135 5.36705 16.9761C5.43905 16.5068 5.59638 16.0588 5.70305 15.5628C4.77238 15.8348 3.87905 16.0615 3.07371 16.5308C2.48171 16.8748 2.02305 17.3255 1.76438 17.9815C1.45505 18.7681 1.26838 19.5841 1.11105 20.4108C0.748381 22.3308 0.636381 24.2801 0.489714 26.2241C0.449714 26.7548 0.687048 27.0828 1.10838 27.3308H20.8124C21.3137 27.0935 21.5057 26.7148 21.447 26.1468ZM6.54571 9.7468C6.72705 9.7948 6.81238 9.8828 6.88171 10.0481C7.28971 11.0241 7.79371 11.9415 8.54305 12.7041C9.13505 13.3095 9.82038 13.7628 10.6897 13.8508C11.783 13.9628 12.6364 13.4748 13.375 12.7361C14.127 11.9815 14.6497 11.0748 15.0577 10.0935C15.1137 9.96014 15.1324 9.79214 15.335 9.77347C16.063 9.70414 16.631 8.55214 16.511 7.8508C16.4764 7.6508 16.4017 7.4668 16.183 7.45347C15.911 7.4348 15.9617 7.2908 16.0017 7.1228C16.1457 6.52014 16.207 5.90414 16.2364 5.37614C16.255 4.84014 16.2044 4.3948 16.0977 3.96814C15.935 3.3228 15.6017 2.76814 14.9964 2.4588C14.639 2.2748 14.3644 2.07214 14.2444 1.6748C14.199 1.52014 14.047 1.4188 13.9217 1.3148C13.4577 0.930803 12.9084 0.762803 12.3377 0.706803C10.6284 0.538803 9.03371 0.904137 7.62305 1.8988C6.64971 2.58147 5.98038 3.4828 5.84438 4.70947C5.75371 5.51747 5.79905 6.31747 5.95105 7.1148C5.98305 7.28547 6.05238 7.46414 5.75105 7.4588C5.61505 7.45614 5.52705 7.5708 5.48171 7.70414C5.23105 8.4188 5.80971 9.55214 6.54571 9.7468Z" fill="white"/>
</svg>
