<svg width="16" height="16" viewBox="0 0 16 16" fill="none" xmlns="http://www.w3.org/2000/svg">
<path d="M15.6465 6.79998C15.0801 6.35358 14.0225 6.73438 13.1985 7.64958C12.4289 7.43518 11.7457 7.48798 11.1633 7.81598C10.0481 8.44478 9.62566 9.89118 9.46886 10.9904C9.44486 11.16 9.42246 11.3328 9.39846 11.5056C9.14886 13.408 8.91206 15.2064 6.65606 15.2064C6.61926 15.2064 6.58246 15.2064 6.54406 15.2048C5.90406 15.1888 5.44326 14.9904 5.13606 14.5968C4.56966 13.8704 4.66726 12.6832 4.73926 12.1904C4.96326 12.0896 5.12166 11.8688 5.12966 11.608L5.16326 10.6336L6.35846 10.2784C6.50726 10.2336 6.62246 10.1392 6.70566 10.0224C6.92006 10.0704 7.18726 10.0592 7.37606 9.94078C7.70726 9.73438 8.19046 9.33758 8.79206 8.58718C9.44966 7.76638 9.61126 7.10558 9.62726 6.67678C9.63526 6.37118 9.42246 6.06078 9.26406 5.97438C9.10566 5.88798 9.07686 6.04958 9.10726 6.35358C9.15206 6.81118 9.08006 7.50718 8.48966 8.26398C8.47846 8.27678 8.46886 8.28638 8.45926 8.29918L8.46406 8.26558C8.60486 8.04798 8.72646 7.81918 8.81926 7.57438C9.77926 5.03198 7.70406 2.06558 7.61446 1.94078C7.59526 1.91358 7.56966 1.89598 7.54406 1.87518C7.60326 1.73918 7.58886 1.61598 7.48966 1.55198C7.33446 1.45118 7.09126 1.14878 6.95046 0.876778L6.70086 0.399978C6.56166 0.129578 6.26726 0.0815779 6.04646 0.292778L5.42726 0.894378C5.20486 1.10558 5.24806 1.39198 5.51846 1.53438L5.95526 1.75838C6.22566 1.90078 6.52166 2.15678 6.61766 2.33118C6.68966 2.46078 6.85606 2.47998 7.02726 2.39198C7.20326 2.64798 8.91206 5.24158 8.12806 7.31678C8.09606 7.40158 8.04646 7.47998 8.00486 7.56158L8.00006 7.56318C7.95206 7.55198 7.90566 7.53438 7.85606 7.53438C7.73286 7.53438 7.61766 7.57118 7.52166 7.63198L7.66726 7.77118C7.57926 7.87838 7.52006 8.00958 7.52006 8.15838C7.52006 8.19518 7.52806 8.23038 7.53446 8.26558C7.25926 8.56638 6.91526 8.83518 6.49926 9.06398C6.34566 8.97758 6.16006 8.95038 5.97926 9.00478L4.52326 9.43678L2.96486 8.94398C2.78726 8.88798 2.60166 8.91198 2.44966 8.99518C1.70726 8.55518 1.20166 7.99358 0.944056 7.31678C0.123256 5.14238 2.04166 2.39678 2.06086 2.36958C2.06246 2.36478 2.06246 2.35998 2.06726 2.35518C2.06726 2.35518 2.11206 2.39838 2.16806 2.44798C2.22406 2.50078 2.34566 2.40158 2.44166 2.22718C2.53606 2.05118 2.83526 1.79518 3.10566 1.65438L3.54086 1.42878C3.81286 1.28798 3.85446 1.00158 3.63366 0.788778L3.01286 0.188778C2.79206 -0.0240221 2.50086 0.0239779 2.35846 0.295978L2.11046 0.772778C1.96806 1.04478 1.72646 1.34558 1.57126 1.44798C1.41286 1.54718 1.34406 1.68318 1.41286 1.74718L1.53926 1.86558C1.50886 1.88638 1.48166 1.90878 1.45766 1.94078C1.36806 2.06558 -0.707144 5.03198 0.252856 7.57438C0.576056 8.42558 1.19686 9.11838 2.10566 9.64638C2.12966 9.90078 2.30406 10.128 2.56326 10.2112L3.83526 10.6128L3.80166 11.5616C3.79686 11.7584 3.87846 11.9376 4.00966 12.0656C3.92166 12.6528 3.80486 14.0896 4.55206 15.048C4.99846 15.6208 5.66246 15.9216 6.52646 15.9424C6.57286 15.9456 6.61766 15.9456 6.66246 15.9456C9.56006 15.9456 9.87686 13.5408 10.1313 11.6032C10.1537 11.4336 10.1761 11.264 10.2001 11.096C10.3889 9.77278 10.8593 8.83678 11.5265 8.46078C11.8609 8.27038 12.2625 8.21758 12.7201 8.29758C12.1457 9.24638 12.0737 10.2368 12.5969 10.6528C13.2033 11.1328 14.3777 10.6592 15.2193 9.59518C16.0609 8.53118 16.2513 7.27998 15.6465 6.79998ZM8.35366 8.42558C8.30406 8.48478 8.25446 8.54878 8.20646 8.60318C8.25446 8.54238 8.30246 8.48158 8.34726 8.41918L8.35366 8.42558ZM14.1377 8.71518C13.8225 9.11518 13.3825 9.29278 13.1553 9.11198C12.9889 8.98078 12.9841 8.69438 13.1153 8.39358C13.2353 8.43198 13.3569 8.47358 13.4817 8.52638C13.6721 8.60638 13.8865 8.51998 13.9665 8.33118C14.0465 8.14398 13.9585 7.92638 13.7697 7.84638C13.7137 7.82238 13.6609 7.80478 13.6049 7.78558C13.8625 7.59678 14.1329 7.53918 14.2945 7.66878C14.5233 7.84958 14.4513 8.31838 14.1377 8.71518Z" fill="#DBDDE0"/>
</svg>
