<svg width="14" height="16" viewBox="0 0 14 16" fill="none" xmlns="http://www.w3.org/2000/svg">
<path d="M6.32955 1.3344C6.32955 2.0704 5.73275 2.6688 4.99515 2.6688C4.25755 2.6688 3.66075 2.072 3.66075 1.3344C3.66075 0.5968 4.26075 0 4.99675 0C5.73275 0 6.32955 0.5984 6.32955 1.3344ZM10.3935 12.256C10.136 12.1328 9.82875 12.2416 9.70555 12.4992C8.98875 13.9968 7.45275 14.9648 5.79195 14.9648C3.40155 14.9648 1.45755 13.0208 1.45755 10.6304C1.45755 9.2736 2.07515 8.0192 3.15355 7.1904C3.38075 7.016 3.42235 6.6928 3.24795 6.4656C3.07515 6.24 2.75035 6.1984 2.52475 6.3712C1.18875 7.3984 0.42395 8.9504 0.42395 10.632C0.42395 13.5904 2.83195 16 5.79195 16C7.84635 16 9.74875 14.8 10.6368 12.9456C10.76 12.688 10.6496 12.3792 10.3935 12.256ZM13.5024 12.6544L10.7215 8.1936C10.5887 7.9792 10.3264 7.9296 10.0448 7.9408H6.54395C6.40155 7.9408 6.28635 7.9248 6.28635 7.9072L6.28955 7.8752V7.3072C6.28955 7.1648 6.31195 7.0544 6.34075 7.056C6.35675 7.0576 6.37435 7.0592 6.39355 7.0592H9.44795C9.79195 7.0592 10.072 6.7808 10.072 6.4352C10.072 6.0912 9.79355 5.8112 9.44795 5.8112H6.39355C6.37435 5.8112 6.35835 5.8128 6.34075 5.816C6.31195 5.8176 6.28955 5.7072 6.28955 5.5648V4.1056C6.28955 3.5504 5.83835 3.1008 5.28475 3.1008H5.00635C4.45275 3.1008 4.00315 3.5504 4.00315 4.1056V9.1536C4.00315 9.7072 4.45275 10.1584 5.00635 10.1584H9.81435C9.95675 10.1584 10.1344 10.2544 10.2144 10.3728C10.6976 11.1024 12.2448 13.44 12.2448 13.44C12.4304 13.7392 12.8656 13.808 13.2128 13.5904C13.56 13.3744 13.6896 12.9552 13.5024 12.6544Z" fill="#DBDDE0"/>
</svg>
