<svg width="14" height="16" viewBox="0 0 14 16" fill="none" xmlns="http://www.w3.org/2000/svg">
<path d="M13.2683 15.2881C13.2043 14.6753 13.1883 14.0577 13.1275 13.4433C13.0363 12.5233 12.9051 11.6081 12.6331 10.7201C12.4859 10.2449 12.2619 9.83208 11.8155 9.56968C11.3883 9.31848 10.9227 9.16968 10.4555 9.02408C10.2923 8.97288 10.3211 9.08808 10.3307 9.17128C10.3739 9.57288 10.3371 9.96968 10.2539 10.3617C10.2267 10.4881 10.2699 10.5457 10.3787 10.6081C10.8395 10.8657 11.1019 11.2593 11.1307 11.7921C11.1595 12.3409 11.0475 12.8801 11.0139 13.4241C10.9915 13.7937 10.9515 14.1649 10.7963 14.5089C10.6091 14.9249 10.2859 15.0897 9.8443 15.0049C9.6763 14.9729 9.5659 14.8961 9.5931 14.7105C9.6203 14.5281 9.7467 14.4641 9.9147 14.4977C10.1259 14.5393 10.2491 14.4401 10.3355 14.2673C10.3947 14.1473 10.4267 14.0161 10.4395 13.8833C10.5019 13.2705 10.5691 12.6577 10.6187 12.0433C10.6635 11.4881 10.3659 11.0673 9.8731 10.9553C9.3643 10.8401 8.9259 11.0705 8.7163 11.5889C8.5483 12.0033 8.4107 12.4305 8.2507 12.8497C8.1595 13.0865 8.0811 13.3249 8.0331 13.5729C7.9707 13.8945 8.0347 14.0129 8.3323 14.1473C8.4747 14.2113 8.5435 14.3121 8.4939 14.4641C8.4443 14.6177 8.3323 14.6609 8.1787 14.6321C7.7403 14.5489 7.4859 14.2369 7.4939 13.7873C7.4971 13.6033 7.5243 13.4257 7.5755 13.2497C7.7643 12.5969 8.0123 11.9649 8.2651 11.3345C8.4923 10.7681 8.9451 10.4561 9.5611 10.4129C9.6811 10.4033 9.7323 10.3697 9.7547 10.2529C9.8299 9.86408 9.8411 9.47528 9.8059 9.08168C9.7899 8.89608 9.7179 8.79528 9.5243 8.76488C9.3675 8.74088 9.2107 8.68808 9.0635 8.62728C8.9163 8.56808 8.8523 8.58568 8.8011 8.75208C8.6203 9.35688 8.3675 9.93448 8.0747 10.4945C7.9339 10.7649 7.7707 11.0241 7.5899 11.3377C7.5179 10.9409 7.4635 10.6033 7.3931 10.2673C7.3611 10.1169 7.3643 9.98088 7.4299 9.83848C7.4667 9.75688 7.5643 9.66088 7.4667 9.57288C7.3115 9.43208 7.1419 9.30888 6.9771 9.17928C6.9723 9.17448 6.9499 9.18568 6.9403 9.19368C6.7803 9.33128 6.5979 9.44968 6.4731 9.61288C6.3979 9.71048 6.5435 9.83848 6.5755 9.95688C6.5819 9.98408 6.5963 10.0129 6.5931 10.0385C6.5259 10.4513 6.4555 10.8625 6.3803 11.3137C6.3275 11.2513 6.3035 11.2273 6.2875 11.2001C5.8651 10.5185 5.5211 9.80168 5.2603 9.04328C5.2075 8.88808 5.2123 8.64808 5.0795 8.59848C4.9547 8.55208 4.7675 8.67528 4.6075 8.72008C4.5243 8.74408 4.4507 8.76648 4.4187 8.86408C4.3579 9.05288 4.2715 9.23208 4.2267 9.42088C3.9323 10.6497 4.0059 11.8657 4.3851 13.0673C4.4427 13.2497 4.5115 13.3489 4.7195 13.3889C5.1211 13.4689 5.3371 13.9089 5.1995 14.2897C5.0555 14.6913 4.6219 14.8801 4.2443 14.7073C3.8635 14.5345 3.7003 14.0657 3.9211 13.7169C4.0011 13.5905 3.9915 13.4929 3.9483 13.3681C3.5419 12.2017 3.4331 11.0081 3.6203 9.78568C3.6635 9.50408 3.7579 9.23528 3.8219 8.93768C3.2635 9.10088 2.7275 9.23688 2.2443 9.51848C1.8891 9.72488 1.6139 9.99528 1.4587 10.3889C1.2731 10.8609 1.1611 11.3505 1.0667 11.8465C0.849102 12.9985 0.781902 14.1681 0.693902 15.3345C0.669902 15.6529 0.812302 15.8497 1.0651 15.9985H12.8875C13.1883 15.8561 13.3035 15.6289 13.2683 15.2881ZM4.3275 5.44808C4.4363 5.47688 4.4875 5.52968 4.5291 5.62888C4.7739 6.21448 5.0763 6.76488 5.5259 7.22248C5.8811 7.58568 6.2923 7.85768 6.8139 7.91048C7.4699 7.97768 7.9819 7.68488 8.4251 7.24168C8.8763 6.78888 9.1899 6.24488 9.4347 5.65608C9.4683 5.57608 9.4795 5.47528 9.6011 5.46408C10.0379 5.42248 10.3787 4.73128 10.3067 4.31048C10.2859 4.19048 10.2411 4.08008 10.1099 4.07208C9.9467 4.06088 9.9771 3.97448 10.0011 3.87368C10.0875 3.51208 10.1243 3.14248 10.1419 2.82568C10.1531 2.50408 10.1227 2.23688 10.0587 1.98088C9.9611 1.59368 9.7611 1.26088 9.3979 1.07528C9.1835 0.964882 9.0187 0.843282 8.9467 0.604882C8.9195 0.512082 8.8283 0.451282 8.7531 0.388882C8.4747 0.158482 8.1451 0.0576819 7.8027 0.0240819C6.7771 -0.0767181 5.8203 0.142482 4.9739 0.739282C4.3899 1.14888 3.9883 1.68968 3.9067 2.42568C3.8523 2.91048 3.8795 3.39048 3.9707 3.86888C3.9899 3.97128 4.0315 4.07848 3.8507 4.07528C3.7691 4.07368 3.7163 4.14248 3.6891 4.22248C3.5387 4.65128 3.8859 5.33128 4.3275 5.44808Z" fill="#DBDDE0"/>
</svg>
